<?xml version="1.0" encoding="UTF-8"?>
<svg width="397.83" height="397.83" version="1.1" viewBox="0 0 397.83 397.83" xmlns="http://www.w3.org/2000/svg">
 <g transform="translate(1978.3 -4429.7)" fill="#fff"></g>
 <g transform="translate(-923.57 979.68)">
  <g transform="matrix(1.1124 .99304 -.99304 1.1124 709.65 -1089.6)">
   <path transform="matrix(.50028 -.4466 .4466 .50028 -46.646 154.56)" d="m618.21-15.656a198.91 198.91 0 0 0-198.91 198.91 198.91 198.91 0 0 0 198.91 198.91 198.91 198.91 0 0 0 198.91-198.91 198.91 198.91 0 0 0-198.91-198.91zm-4.1348 39.328a10.165 10.165 0 0 1 8.6602 2.3887l151.07 134.39a10.138 10.138 45 0 1-5.4844 17.635l-114.57 14.289a25.608 25.608 45 0 0-22.438 25.135l-1.248 115.45a10.138 10.138 0 0 1-16.902 7.4414l-150.6-134.91a10.165 10.165 0 0 1 5.5391-17.658l114.23-14.072a25.53 25.53 0 0 0 22.408-25.102l1.0703-115.09a10.165 10.165 0 0 1 8.2617-9.8887z" fill="#fff"/>
  </g>
 </g>
</svg>
