<?xml version="1.0" encoding="UTF-8"?>
<svg width="2482.9" height="456.12" version="1.1" viewBox="0 0 2482.9 456.12" xmlns="http://www.w3.org/2000/svg">
 <g transform="translate(2008.6 -4403.4)" fill="#000"></g>
 <g transform="translate(-893.28 1006)">
  <g transform="matrix(1.1124 .99304 -.99304 1.1124 709.65 -1089.6)">
   <path d="m243.32-142a152.94 152.94 0 0 0-12.243 215.94 152.94 152.94 0 0 0 215.94 12.242 152.94 152.94 0 0 0 12.241-215.94 152.94 152.94 0 0 0-215.94-12.242zm17.766 24.675a7.8154 7.8154 0 0 1 6.1904-3.0642l155.46-0.26986a7.7949 7.7949 0 0 1 5.8839 12.923l-58.396 66.858a19.689 19.689 0 0 0 2e-4 25.906l58.397 66.857a7.7949 7.7949 0 0 1-5.8846 12.923l-155.46-0.2715a7.8154 7.8154 0 0 1-5.8645-12.965l58.315-66.562a19.63 19.63 0 0 0 0-25.872l-58.316-66.561a7.8154 7.8154 0 0 1-0.32459-9.9022z" stroke-width=".76888"/>
   <g transform="matrix(8.0379 -7.1754 7.1754 8.0379 -4877.3 1676.7)" fill="#000" stroke-width=".67062" aria-label="timeflies">
    <path d="m494.83 213.46c1.1266 0 2.0387-0.24142 2.6556-0.40237v-3.6482c-0.4292 0.16095-0.83157 0.24143-1.3681 0.24143-0.91204 0-1.4217-0.45602-1.4217-1.4754v-5.7941h2.7629v-3.2726h-2.7629v-2.9239h-4.8016v2.9239h-1.69v3.2726h1.69v6.2502c0 3.2994 1.7704 4.8284 4.9357 4.8284z"/>
    <path d="m502.21 197.77c1.5022 0 2.6556-1.0462 2.6556-2.4679s-1.1535-2.4947-2.6556-2.4947c-1.5022 0-2.6288 1.073-2.6288 2.4947s1.1266 2.4679 2.6288 2.4679zm-2.3874 15.371h4.8016v-14.029h-4.8016z"/>
    <path d="m507.6 213.14h4.8016v-8.1279c0-1.529 0.85839-2.3606 2.146-2.3606 1.0998 0 1.7972 0.69744 1.7972 2.1192v8.3693h4.748v-8.1279c0-1.529 0.85839-2.3606 2.146-2.3606 1.0998 0 1.7972 0.69744 1.7972 2.1192v8.3693h4.8016v-9.174c0-3.514-1.9314-5.2308-4.587-5.2308-1.7704 0-3.4336 0.69745-4.6407 2.3338-0.67062-1.529-1.9582-2.3338-3.8091-2.3338-2.1728 0-3.6482 1.1803-4.3992 2.5215v-2.146h-4.8016z"/>
    <path d="m539.44 213.46c4.2383 0 6.6794-1.7972 7.1086-4.9626h-4.5066c-0.18777 0.93887-0.85839 1.6631-2.441 1.6631-1.7168 0-2.7898-1.073-2.9239-2.9239h9.8715v-1.2608c0-5.043-3.2994-7.2427-7.1354-7.2427-4.2383 0-7.5914 2.8434-7.5914 7.35v0.2146c0 4.587 3.219 7.1622 7.6182 7.1622zm-2.7093-8.9326c0.24142-1.69 1.2339-2.6288 2.6825-2.6288 1.5558 0 2.3874 0.93886 2.4679 2.6288z"/>
    <path d="m549.34 213.14h4.7748v-10.757h2.8434v-3.2726h-2.8434v-1.2339c0-0.91204 0.48285-1.529 1.6095-1.529 0.5365 0 0.96569 0.0805 1.3144 0.18777v-3.514c-0.64379-0.16095-1.3144-0.29507-2.1996-0.29507-3.3263 0-5.4991 1.6631-5.4991 5.1503v1.2339h-1.7704v3.2726h1.7704z"/>
    <path d="m559.1 213.14h4.7748v-20.199h-4.7748z"/>
    <path d="m566.99 213.14h4.8016v-14.029h-4.8016z"/>
    <path d="m569.38 197.77c1.5022 0 2.6556-1.0462 2.6556-2.4679s-1.1535-2.4947-2.6556-2.4947c-1.5022 0-2.6288 1.073-2.6288 2.4947s1.1266 2.4679 2.6288 2.4679z"/>
    <path d="m575.95 214.75c1.5022 0 2.6556-1.0462 2.6556-2.4679s-1.1535-2.4947-2.6556-2.4947c-1.5022 0-2.6288 1.073-2.6288 2.4947s1.1266 2.4679 2.6288 2.4679z" stroke-width=".67062"/>
    <path d="m586.12 213.46c4.2383 0 6.6794-1.7972 7.1086-4.9626h-4.5066c-0.18777 0.93887-0.85839 1.6631-2.441 1.6631-1.7168 0-2.7898-1.073-2.9239-2.9239h9.8715v-1.2608c0-5.043-3.2994-7.2427-7.1354-7.2427-4.2383 0-7.5914 2.8434-7.5914 7.35v0.2146c0 4.587 3.219 7.1622 7.6182 7.1622zm-2.7093-8.9326c0.24142-1.69 1.2339-2.6288 2.6825-2.6288 1.5558 0 2.3874 0.93886 2.4679 2.6288z"/>
    <path d="m600.93 213.46c3.8896 0 6.3574-1.5022 6.3574-4.8284 0-3.0044-1.8777-4.0237-5.7673-4.5066-1.7168-0.2146-2.3606-0.48285-2.3606-1.1535 0-0.6438 0.53649-1.0998 1.5826-1.0998 1.0998 0 1.6095 0.45602 1.7973 1.3949h4.3456c-0.3219-3.3531-2.7361-4.5334-6.1965-4.5334-3.2458 0-6.0087 1.5022-6.0087 4.6138 0 2.9239 1.5827 4.0237 5.3381 4.5066 1.9314 0.26825 2.602 0.59014 2.602 1.2608 0 0.69744-0.53649 1.1535-1.7168 1.1535-1.3681 0-1.8241-0.56331-1.985-1.5826h-4.4261c0.1073 3.1117 2.441 4.7748 6.4379 4.7748z"/>
   </g>
  </g>
 </g>
</svg>
